<svg id="Layer_1" data-name="Layer 1" xmlns="http://www.w3.org/2000/svg" width="100%" height="100%" viewBox="0 0 500 530"><defs><style>.cls-1,.cls-4{stroke:#d6dade;stroke-miterlimit:10;}.cls-2{fill:#fff;}.cls-3{fill:#d6dade;}.cls-4{fill:none;}.cls-5{fill:#4cb1e4;}</style></defs><title>crate</title><path class="cls-1" d="M437.09,132.35a177.87,177.87,0,0,0-341,0h341Z" transform="translate(-66.08 -4.62)"/><circle class="cls-2" cx="200.5" cy="132.73" r="15"/><path class="cls-3" d="M373.64,132.35c-5.5,0-10.24-.24-10.54-0.54a0.77,0.77,0,0,0-1.08,0c-0.3.3-5,.54-10.54,0.54H76.58a10,10,0,0,0-10,10v380a10,10,0,0,0,10,10h380a10,10,0,0,0,10-10v-380a10,10,0,0,0-10-10H373.64Zm42.94,94c0,5.5-3.18,13.18-7.07,17.07l-56.94,56.94a10,10,0,0,1-14.14,0l-43.9-43.9a10,10,0,0,1,0-14.14l52.88-52.88c3.89-3.89,11.57-7.07,17.07-7.07h42.11a10,10,0,0,1,10,10v34Zm-7.07,60.07c3.89-3.89,7.07-2.57,7.07,2.93v79.17c0,5.5-3.18,6.82-7.07,2.93L374.07,336a10,10,0,0,1,0-14.14Zm-92.58,35.44a10,10,0,0,1,0,14.14L272.81,380.1a10,10,0,0,1-14.14,0l-43.9-43.9a10,10,0,0,1,0-14.14l44.12-44.12a10,10,0,0,1,14.14,0ZM273,220.8a10,10,0,0,1-14.14,0l-31.38-31.38c-3.89-3.89-2.57-7.07,2.93-7.07h71c5.5,0,6.82,3.18,2.93,7.07ZM167.44,182.35c5.5,0,13.18,3.18,17.07,7.07l52.88,52.88a10,10,0,0,1,0,14.14l-44.12,44.12a10,10,0,0,1-14.14,0l-55.47-55.47c-3.89-3.89-7.07-11.57-7.07-17.07V192.35a10,10,0,0,1,10-10h40.86Zm-9.81,139.71a10,10,0,0,1,0,14.14l-34,34c-3.89,3.89-7.07,2.57-7.07-2.93V291c0-5.5,3.18-6.82,7.07-2.93Zm-41,108.19c0-5.5,3.18-13.18,7.07-17.07l55.47-55.47a10,10,0,0,1,14.14,0l43.9,43.9a10,10,0,0,1,0,14.14l-59.54,59.54c-3.89,3.89-11.57,7.07-17.07,7.07h-34a10,10,0,0,1-10-10V430.24Zm142.09,7a10,10,0,0,1,14.14,0l38,38c3.89,3.89,2.57,7.07-2.93,7.07H223.56c-5.5,0-6.82-3.18-2.93-7.07Zm112.25,45.11c-5.5,0-13.18-3.18-17.07-7.07l-59.54-59.54a10,10,0,0,1,0-14.14l44.12-44.12a10,10,0,0,1,14.14,0l56.94,56.94c3.89,3.89,7.07,11.57,7.07,17.07v40.86a10,10,0,0,1-10,10H370.92Z" transform="translate(-66.08 -4.62)"/><path class="cls-4" d="M373.64,132.35c-5.5,0-10.24-.24-10.54-0.54a0.77,0.77,0,0,0-1.08,0c-0.3.3-5,.54-10.54,0.54H76.58a10,10,0,0,0-10,10v380a10,10,0,0,0,10,10h380a10,10,0,0,0,10-10v-380a10,10,0,0,0-10-10H373.64Zm42.94,94c0,5.5-3.18,13.18-7.07,17.07l-56.94,56.94a10,10,0,0,1-14.14,0l-43.9-43.9a10,10,0,0,1,0-14.14l52.88-52.88c3.89-3.89,11.57-7.07,17.07-7.07h42.11a10,10,0,0,1,10,10v34Zm-7.07,60.07c3.89-3.89,7.07-2.57,7.07,2.93v79.17c0,5.5-3.18,6.82-7.07,2.93L374.07,336a10,10,0,0,1,0-14.14Zm-92.58,35.44a10,10,0,0,1,0,14.14L272.81,380.1a10,10,0,0,1-14.14,0l-43.9-43.9a10,10,0,0,1,0-14.14l44.12-44.12a10,10,0,0,1,14.14,0ZM273,220.8a10,10,0,0,1-14.14,0l-31.38-31.38c-3.89-3.89-2.57-7.07,2.93-7.07h71c5.5,0,6.82,3.18,2.93,7.07ZM167.44,182.35c5.5,0,13.18,3.18,17.07,7.07l52.88,52.88a10,10,0,0,1,0,14.14l-44.12,44.12a10,10,0,0,1-14.14,0l-55.47-55.47c-3.89-3.89-7.07-11.57-7.07-17.07V192.35a10,10,0,0,1,10-10h40.86Zm-9.81,139.71a10,10,0,0,1,0,14.14l-34,34c-3.89,3.89-7.07,2.57-7.07-2.93V291c0-5.5,3.18-6.82,7.07-2.93Zm-41,108.19c0-5.5,3.18-13.18,7.07-17.07l55.47-55.47a10,10,0,0,1,14.14,0l43.9,43.9a10,10,0,0,1,0,14.14l-59.54,59.54c-3.89,3.89-11.57,7.07-17.07,7.07h-34a10,10,0,0,1-10-10V430.24Zm142.09,7a10,10,0,0,1,14.14,0l38,38c3.89,3.89,2.57,7.07-2.93,7.07H223.56c-5.5,0-6.82-3.18-2.93-7.07Zm112.25,45.11c-5.5,0-13.18-3.18-17.07-7.07l-59.54-59.54a10,10,0,0,1,0-14.14l44.12-44.12a10,10,0,0,1,14.14,0l56.94,56.94c3.89,3.89,7.07,11.57,7.07,17.07v40.86a10,10,0,0,1-10,10H370.92Z" transform="translate(-66.08 -4.62)"/><path class="cls-5" d="M334.53,140.47a10,10,0,0,1-10-10V117a10,10,0,0,1,10-10H381.1a10,10,0,0,0,10-10V50.47a10,10,0,0,1,10-10h13.44a10,10,0,0,1,10,10V97a10,10,0,0,0,10,10H481.1a10,10,0,0,1,10,10v13.44a10,10,0,0,1-10,10H434.53a10,10,0,0,0-10,10V197a10,10,0,0,1-10,10H401.1a10,10,0,0,1-10-10V150.47a10,10,0,0,0-10-10H334.53Z" transform="translate(-66.08 -4.62)"/></svg>
